<?xml version="1.0" encoding="UTF-8"?>
<svg width="512px" height="512px" viewBox="0 0 512 512" version="1.1" xmlns="http://www.w3.org/2000/svg" xmlns:xlink="http://www.w3.org/1999/xlink">
    <title>icon</title>
    <g id="Page-1" stroke="none" stroke-width="1" fill="none" fill-rule="evenodd">
        <g id="Artboard" fill="#6366F1">
            <path d="M416,480 L416,512 L96,512 L96,480 L416,480 Z M96,448 L96,480 L64,480 L64,448 L96,448 Z M448,448 L448,480 L416,480 L416,448 L448,448 Z M64,416 L64,448 L32,448 L32,416 L64,416 Z M480,416 L480,448 L448,448 L448,416 L480,416 Z M32,96 L32,416 L1.0658141e-14,416 L-1.0658141e-14,96 L32,96 Z M512,96 L512,416 L480,416 L480,96 L512,96 Z M352,384 L352,416 L160,416 L160,384 L352,384 Z M160,352 L160,384 L128,384 L128,352 L160,352 Z M384,352 L384,384 L352,384 L352,352 L384,352 Z M128,320 L128,352 L96,352 L96,320 L128,320 Z M416,320 L416,352 L384,352 L384,320 L416,320 Z M192,64 L192,96 L224,96 L224,128 L160,128 L160,160 L224,160 L224,256 L192,256 L192,288 L160,288 L160,256 L128,256 L128,224 L192,224 L192,192 L128,192 L128,96 L160,96 L160,64 L192,64 Z M352,64 L352,96 L384,96 L384,128 L320,128 L320,160 L384,160 L384,256 L352,256 L352,288 L320,288 L320,256 L288,256 L288,224 L352,224 L352,192 L288,192 L288,96 L320,96 L320,64 L352,64 Z M64,64 L64,96 L32,96 L32,64 L64,64 Z M480,64 L480,96 L448,96 L448,64 L480,64 Z M96,32 L96,64 L64,64 L64,32 L96,32 Z M448,32 L448,64 L416,64 L416,32 L448,32 Z M416,0 L416,32 L96,32 L96,0 L416,0 Z" id="icon"></path>
        </g>
    </g>
</svg>